<svg width="80" height="80" viewBox="0 0 80 80" fill="none" xmlns="http://www.w3.org/2000/svg">
<g clip-path="url(#clip0)">
<path d="M67.927 79.9999H12.072C10.3829 79.9999 9.01367 78.6307 9.01367 76.9416V12.3605C9.01367 10.6715 10.3829 9.30225 12.072 9.30225H67.9271C69.6162 9.30225 70.9854 10.6715 70.9854 12.3605V76.9415C70.9854 78.6307 69.6162 79.9999 67.927 79.9999Z" fill="#D8ECFE"/>
<path d="M39.9993 15.5331C38.2835 15.5331 36.8926 14.1422 36.8926 12.4266V3.10656C36.8926 1.39094 38.2835 0 39.9993 0C41.7151 0 43.1059 1.39094 43.1059 3.10656V12.4266C43.1059 14.1423 41.7151 15.5331 39.9993 15.5331Z" fill="#26A6FE"/>
<path d="M22.2903 15.5331C20.5745 15.5331 19.1836 14.1422 19.1836 12.4266V3.10656C19.1837 1.39094 20.5745 0 22.2903 0C24.0061 0 25.3969 1.39094 25.3969 3.10656V12.4266C25.397 14.1423 24.0061 15.5331 22.2903 15.5331Z" fill="#26A6FE"/>
<path d="M57.7063 15.5331C55.9905 15.5331 54.5996 14.1422 54.5996 12.4266V3.10656C54.5996 1.39094 55.9905 0 57.7063 0C59.4221 0 60.8129 1.39094 60.8129 3.10656V12.4266C60.8129 14.1423 59.4221 15.5331 57.7063 15.5331Z" fill="#26A6FE"/>
<path d="M59.9163 33.8321H34.4837C33.0613 33.8321 31.9082 32.679 31.9082 31.2566C31.9082 29.8343 33.0613 28.6812 34.4837 28.6812H59.9163C61.3387 28.6812 62.4918 29.8343 62.4918 31.2566C62.4918 32.6791 61.3387 33.8321 59.9163 33.8321Z" fill="#7A8C98"/>
<path d="M59.9163 49.8018H34.4837C33.0613 49.8018 31.9082 48.6487 31.9082 47.2263C31.9082 45.804 33.0613 44.6509 34.4837 44.6509H59.9163C61.3387 44.6509 62.4918 45.804 62.4918 47.2263C62.4918 48.6488 61.3387 49.8018 59.9163 49.8018Z" fill="#7A8C98"/>
<path d="M59.9163 65.772H34.4837C33.0613 65.772 31.9082 64.6189 31.9082 63.1966C31.9082 61.7742 33.0613 60.6211 34.4837 60.6211H59.9163C61.3387 60.6211 62.4918 61.7742 62.4918 63.1966C62.4918 64.6191 61.3387 65.772 59.9163 65.772Z" fill="#7A8C98"/>
<path d="M19.9768 49.9308L17.6852 46.2089C17.3357 45.6411 17.5126 44.8975 18.0804 44.5479C18.6482 44.1983 19.3919 44.3754 19.7413 44.9429L21.1513 47.233L27.6018 39.4727C28.0279 38.96 28.7894 38.8897 29.3018 39.316C29.8146 39.7421 29.8848 40.5033 29.4585 41.016L21.9332 50.0694C21.4052 50.7049 20.4096 50.6336 19.9768 49.9308V49.9308Z" fill="#7A8C98"/>
<path d="M19.9768 65.8961L17.6852 62.1742C17.3357 61.6064 17.5126 60.8628 18.0804 60.5131C18.6482 60.1634 19.3919 60.3406 19.7413 60.9081L21.1513 63.1982L27.6018 55.4381C28.0282 54.9253 28.7893 54.8551 29.3019 55.2814C29.8146 55.7075 29.8848 56.4687 29.4587 56.9814L21.9334 66.0346C21.4052 66.6701 20.4096 66.5989 19.9768 65.8961V65.8961Z" fill="#7A8C98"/>
<path d="M19.9768 33.946L17.6852 30.2241C17.3357 29.6563 17.5126 28.9127 18.0804 28.563C18.6482 28.2134 19.3919 28.3904 19.7413 28.958L21.1513 31.2482L27.6018 23.4879C28.0279 22.9751 28.7894 22.9049 29.3018 23.3312C29.8146 23.7573 29.8848 24.5185 29.4585 25.0312L21.9332 34.0846C21.4052 34.7199 20.4096 34.6487 19.9768 33.946V33.946Z" fill="#7A8C98"/>
<path d="M67.9273 9.30225H61.7266C63.4156 9.30225 64.7848 10.6715 64.7848 12.3605V76.9415C64.7848 78.6305 63.4156 79.9998 61.7266 79.9998H67.9273C69.6164 79.9998 70.9856 78.6305 70.9856 76.9415V12.3605C70.9858 10.6715 69.6166 9.30225 67.9273 9.30225V9.30225Z" fill="#C4E2FF"/>
<path d="M57.7073 0C57.0484 0 56.4384 0.206563 55.9355 0.556563C56.7418 1.11781 57.2705 2.04984 57.2705 3.10672V12.4266C57.2705 13.4833 56.7418 14.4155 55.9355 14.9767C56.4382 15.3267 57.0482 15.5333 57.7073 15.5333C59.4231 15.5333 60.8138 14.1423 60.8138 12.4266V3.10656C60.8138 1.39094 59.4231 0 57.7073 0V0Z" fill="#0593FC"/>
</g>
<defs>
<clipPath id="clip0">
<rect width="80" height="80" fill="white"/>
</clipPath>
</defs>
</svg>
